<?xml version="1.0" standalone="no"?>
<!DOCTYPE svg PUBLIC "-//W3C//DTD SVG 20010904//EN"
 "http://www.w3.org/TR/2001/REC-SVG-20010904/DTD/svg10.dtd">
<svg version="1.0" xmlns="http://www.w3.org/2000/svg"
 width="1280.000000pt" height="1187.000000pt" viewBox="0 0 1280.000000 1187.000000"
 preserveAspectRatio="xMidYMid meet">
<metadata>
Created by potrace 1.15, written by Peter Selinger 2001-2017
</metadata>
<g transform="translate(0.000000,1187.000000) scale(0.100000,-0.100000)"
fill="#000000" stroke="none">
<path d="M6125 11580 c-135 -19 -252 -77 -350 -175 -60 -60 -90 -105 -204
-305 -74 -129 -229 -399 -344 -600 -840 -1466 -1562 -2783 -3099 -5650 -933
-1739 -1341 -2497 -1713 -3180 -169 -311 -315 -578 -324 -595 -22 -41 -20
-217 3 -305 63 -242 229 -417 461 -487 57 -17 306 -18 5615 -21 5770 -2 5630
-3 5724 34 12 5 17 4 13 -3 -8 -13 79 1 163 26 286 88 489 425 429 713 -15 71
-71 188 -227 474 -531 977 -708 1305 -1927 3579 -103 193 -255 476 -338 630
-919 1715 -1834 3381 -2492 4535 -644 1129 -647 1133 -785 1225 -113 75 -190
97 -345 101 -71 2 -146 5 -165 8 -19 2 -62 0 -95 -4z"/>
</g>
</svg>
